<svg xmlns="http://www.w3.org/2000/svg" version="1.1" xmlns:xlink="http://www.w3.org/1999/xlink" xmlns:svgjs="http://svgjs.com/svgjs" width="350" height="350" preserveAspectRatio="none" viewBox="0 0 350 350"><g mask="url(&quot;#SvgjsMask4551&quot;)" fill="none"><rect width="350" height="350" x="0" y="0" fill="url(#SvgjsLinearGradient4552)"></rect><use xlink:href="#SvgjsPath4553" x="30" y="30" stroke="#1c538e" stroke-width="3"></use><use xlink:href="#SvgjsPath4554" x="30" y="90" stroke="#1c538e"></use><use xlink:href="#SvgjsPath4555" x="30" y="150" stroke="#1c538e"></use><use xlink:href="#SvgjsPath4556" x="30" y="210" stroke="#1c538e"></use><use xlink:href="#SvgjsPath4555" x="30" y="270" stroke="#1c538e"></use><use xlink:href="#SvgjsPath4557" x="30" y="330" stroke="#1c538e"></use><use xlink:href="#SvgjsPath4557" x="90" y="30" stroke="#1c538e"></use><use xlink:href="#SvgjsPath4554" x="90" y="90" stroke="#1c538e"></use><use xlink:href="#SvgjsPath4556" x="90" y="150" stroke="#1c538e"></use><use xlink:href="#SvgjsPath4553" x="90" y="210" stroke="#1c538e" stroke-width="3"></use><use xlink:href="#SvgjsPath4554" x="90" y="270" stroke="#1c538e"></use><use xlink:href="#SvgjsPath4554" x="90" y="330" stroke="#1c538e"></use><use xlink:href="#SvgjsPath4555" x="150" y="30" stroke="#1c538e"></use><use xlink:href="#SvgjsPath4554" x="150" y="90" stroke="#1c538e"></use><use xlink:href="#SvgjsPath4554" x="150" y="150" stroke="#1c538e"></use><use xlink:href="#SvgjsPath4554" x="150" y="210" stroke="#1c538e"></use><use xlink:href="#SvgjsPath4557" x="150" y="270" stroke="#1c538e"></use><use xlink:href="#SvgjsPath4556" x="150" y="330" stroke="#1c538e"></use><use xlink:href="#SvgjsPath4553" x="210" y="30" stroke="#1c538e" stroke-width="3"></use><use xlink:href="#SvgjsPath4555" x="210" y="90" stroke="#1c538e"></use><use xlink:href="#SvgjsPath4556" x="210" y="150" stroke="#1c538e"></use><use xlink:href="#SvgjsPath4555" x="210" y="210" stroke="#1c538e"></use><use xlink:href="#SvgjsPath4554" x="210" y="270" stroke="#1c538e"></use><use xlink:href="#SvgjsPath4555" x="210" y="330" stroke="#1c538e"></use><use xlink:href="#SvgjsPath4557" x="270" y="30" stroke="#1c538e"></use><use xlink:href="#SvgjsPath4555" x="270" y="90" stroke="#1c538e"></use><use xlink:href="#SvgjsPath4554" x="270" y="150" stroke="#1c538e"></use><use xlink:href="#SvgjsPath4554" x="270" y="210" stroke="#1c538e"></use><use xlink:href="#SvgjsPath4555" x="270" y="270" stroke="#1c538e"></use><use xlink:href="#SvgjsPath4553" x="270" y="330" stroke="#1c538e" stroke-width="3"></use><use xlink:href="#SvgjsPath4554" x="330" y="30" stroke="#1c538e"></use><use xlink:href="#SvgjsPath4557" x="330" y="90" stroke="#1c538e"></use><use xlink:href="#SvgjsPath4553" x="330" y="150" stroke="#1c538e" stroke-width="3"></use><use xlink:href="#SvgjsPath4558" x="330" y="210" stroke="#1c538e"></use><use xlink:href="#SvgjsPath4558" x="330" y="270" stroke="#1c538e"></use><use xlink:href="#SvgjsPath4555" x="330" y="330" stroke="#1c538e"></use></g><defs><mask id="SvgjsMask4551"><rect width="350" height="350" fill="#ffffff"></rect></mask><linearGradient x1="0%" y1="0%" x2="100%" y2="100%" gradientUnits="userSpaceOnUse" id="SvgjsLinearGradient4552"><stop stop-color="#0e2a47" offset="0"></stop><stop stop-color="rgba(28, 32, 54, 1)" offset="0.9"></stop><stop stop-color="rgba(0, 58, 158, 1)" offset="1"></stop></linearGradient><path d="M-1 0 a1 1 0 1 0 2 0 a1 1 0 1 0 -2 0z" id="SvgjsPath4556"></path><path d="M-3 0 a3 3 0 1 0 6 0 a3 3 0 1 0 -6 0z" id="SvgjsPath4557"></path><path d="M-5 0 a5 5 0 1 0 10 0 a5 5 0 1 0 -10 0z" id="SvgjsPath4555"></path><path d="M2 -2 L-2 2z" id="SvgjsPath4558"></path><path d="M6 -6 L-6 6z" id="SvgjsPath4554"></path><path d="M30 -30 L-30 30z" id="SvgjsPath4553"></path></defs></svg>